<svg xmlns="http://www.w3.org/2000/svg" xmlns:xlink="http://www.w3.org/1999/xlink" width="108" height="95" viewBox="0 0 108 95">
    <defs>
        <rect id="a" width="108" height="95" rx="8"/>
    </defs>
    <g fill="none" fill-rule="evenodd">
        <mask id="b" fill="#fff">
            <use xlink:href="#a"/>
        </mask>
        <use fill="#FFF" xlink:href="#a"/>
        <g fill="#FFBC0D" mask="url(#b)">
            <path d="M65.655 15.737c-6.325 0-11.966 8.427-15.656 21.603-3.69-13.176-9.333-21.603-15.657-21.603-11.116 0-20.131 28.038-20.131 62.625h8.948c0-32.116 5.008-58.151 11.183-58.151 6.176 0 11.184 24.033 11.184 53.678h8.946c0-29.645 5.007-53.678 11.183-53.678s11.184 26.035 11.184 58.15h8.945c0-34.586-9.012-62.624-20.13-62.624M90.265 78.034c-1.042 0-1.837-.825-1.837-1.92 0-1.07.795-1.896 1.837-1.896 1.026 0 1.824.826 1.824 1.897 0 1.094-.798 1.919-1.824 1.919m0-4.146c-1.22 0-2.244.963-2.244 2.227a2.23 2.23 0 0 0 2.244 2.246c1.214 0 2.23-.963 2.23-2.246a2.218 2.218 0 0 0-2.23-2.227"/>
            <path d="M90.224 75.978H89.8v-.831h.535c.275 0 .571.052.571.399 0 .414-.326.432-.682.432m1.086-.415c0-.5-.29-.746-.908-.746h-1.007v2.614h.405v-1.124h.43l.705 1.124h.436l-.742-1.155c.384-.042.681-.24.681-.713"/>
        </g>
    </g>
</svg>
